<svg width="105" height="150" viewBox="0 0 105 150" fill="none" xmlns="http://www.w3.org/2000/svg">
<path d="M29.8066 9.43662C29.8066 3.89953 34.3149 -0.657868 39.8029 0.0782421C47.6619 1.1324 55.3261 3.42597 62.5045 6.89236C72.7014 11.8164 81.6545 18.9799 88.6956 27.8482C95.7368 36.7164 100.684 47.0604 103.168 58.1081C105.652 69.1559 105.609 80.622 103.042 91.6507C100.475 102.679 95.4504 112.986 88.3428 121.801C81.2353 130.616 72.2287 137.712 61.9951 142.56C51.7615 147.407 40.5652 149.88 29.2419 149.795C21.2707 149.736 13.3814 148.409 5.86467 145.884C0.615761 144.121 -1.41658 138.041 1.0286 133.073L13.3947 107.949C15.8399 102.981 21.907 101.152 27.4227 101.638C28.1464 101.702 28.8737 101.737 29.6028 101.742C33.6896 101.773 37.7306 100.88 41.4241 99.1308C45.1176 97.3813 48.3683 94.8202 50.9336 91.6386C53.4989 88.457 55.3124 84.7372 56.2389 80.7567C57.1655 76.7762 57.181 72.6378 56.2844 68.6504C55.3878 64.6631 53.6022 60.9297 51.0609 57.729C48.5196 54.5282 45.2883 51.9428 41.608 50.1656C40.9513 49.8485 40.2834 49.5586 39.606 49.2963C34.4425 47.2969 29.8066 42.9766 29.8066 37.4395V9.43662Z" fill="url(#paint0_linear_2_35765)"/>
<defs>
<linearGradient id="paint0_linear_2_35765" x1="-45.3867" y1="74.6042" x2="105" y2="74.6042" gradientUnits="userSpaceOnUse">
<stop stop-color="#305AFF" stop-opacity="0.8"/>
<stop offset="1" stop-color="#B5D2FF"/>
</linearGradient>
</defs>
</svg>
