<svg width="104" height="110" viewBox="0 0 104 110" fill="none" xmlns="http://www.w3.org/2000/svg">
<path d="M48.1968 0C57.9001 1.15711e-07 67.4308 2.5671 75.8214 7.44076C84.212 12.3144 91.1639 19.3211 95.9715 27.7498C100.779 36.1784 103.271 45.7289 103.195 55.432C103.119 65.135 100.477 74.6452 95.5376 82.9973C90.5982 91.3494 83.5371 98.246 75.0709 102.987C66.6048 107.729 57.035 110.146 47.3328 109.993C37.6307 109.841 28.1415 107.124 19.8285 102.119C11.5155 97.1146 4.67451 89.9995 -0.000110626 81.4964L6.34271 78.0094C10.4021 85.3935 16.3428 91.5722 23.5618 95.9184C30.7809 100.265 39.0212 102.624 47.4465 102.756C55.8719 102.888 64.1823 100.789 71.5342 96.6721C78.8862 92.5548 85.0181 86.5657 89.3074 79.3128C93.5968 72.0599 95.891 63.8012 95.9572 55.3751C96.0234 46.949 93.8592 38.6554 89.6843 31.336C85.5093 24.0166 79.4723 17.9319 72.1859 13.6997C64.8995 9.46739 56.6231 7.23812 48.1968 7.23812V0Z" fill="#F98272"/>
</svg>
