<svg width="24" height="24" viewBox="0 0 24 24" fill="none" xmlns="http://www.w3.org/2000/svg">
<path d="M17.503 4.49806L4.49896 17.5031C4.23427 17.7677 4.08557 18.1267 4.08557 18.5011C4.08557 18.8754 4.23427 19.2344 4.49896 19.4991C4.76364 19.7637 5.12263 19.9124 5.49696 19.9124C5.87128 19.9124 6.23027 19.7637 6.49496 19.4991L19.499 6.49506C19.7554 6.22867 19.8971 5.8723 19.8937 5.50253C19.8902 5.13277 19.7418 4.77912 19.4804 4.51757C19.219 4.25603 18.8654 4.10748 18.4957 4.10383C18.1259 4.10018 17.7695 4.24173 17.503 4.49806ZM7.00196 5.00006C6.73931 4.9998 6.47919 5.05127 6.23644 5.15153C5.99369 5.2518 5.77306 5.3989 5.58716 5.58443C5.40125 5.76996 5.25371 5.99029 5.15296 6.23284C5.05221 6.47539 5.00022 6.73541 4.99996 6.99806C4.99969 7.2607 5.05117 7.52083 5.15143 7.76358C5.2517 8.00633 5.3988 8.22695 5.58433 8.41286C5.76986 8.59876 5.99019 8.7463 6.23274 8.84705C6.47529 8.9478 6.73531 8.9998 6.99796 9.00006C7.52839 9.00059 8.03731 8.79038 8.41276 8.41569C8.7882 8.04099 8.99943 7.53249 8.99996 7.00206C9.00049 6.47163 8.79028 5.96271 8.41558 5.58726C8.04089 5.21181 7.53239 5.00059 7.00196 5.00006ZM17.002 15.0001C16.4715 14.9995 15.9626 15.2097 15.5872 15.5844C15.2117 15.9591 15.0005 16.4676 15 16.9981C14.9994 17.5285 15.2096 18.0374 15.5843 18.4129C15.959 18.7883 16.4675 18.9995 16.998 19.0001C17.2606 19.0003 17.5207 18.9488 17.7635 18.8486C18.0062 18.7483 18.2269 18.6012 18.4128 18.4157C18.5987 18.2302 18.7462 18.0098 18.847 17.7673C18.9477 17.5247 18.9997 17.2647 19 17.0021C19.0002 16.7394 18.9487 16.4793 18.8485 16.2365C18.7482 15.9938 18.6011 15.7732 18.4156 15.5873C18.2301 15.4014 18.0097 15.2538 17.7672 15.1531C17.5246 15.0523 17.2646 15.0003 17.002 15.0001Z" fill="black"/>
</svg>
